<svg xmlns="http://www.w3.org/2000/svg" width="512" height="512"
     viewBox="0 0 512 512">
    <rect width="100%" height="100%" fill="#DDDDDD"/>
    <path d="M294.62 224.97L231.02 311.41Q241.08 316.87 254.55 316.87L254.55 316.87Q276.37 316.87 288.14 301.52Q299.90 286.18 299.90 257.88L299.90 257.88Q299.90 247.82 298.54 239.63Q297.18 231.45 294.62 224.97L294.62 224.97ZM214.14 291.46L278.08 204.51Q268.53 198.71 254.55 198.71L254.55 198.71Q232.22 198.71 220.37 214.14Q208.52 229.57 208.52 257.88L208.52 257.88Q208.52 278.16 214.14 291.46L214.14 291.46ZM347.30 153.53L318.32 193.09Q329.06 204.68 334.94 220.96Q340.82 237.24 340.82 257.53L340.82 257.53Q340.82 278.34 334.69 295.04Q328.55 311.75 317.21 323.52Q305.87 335.28 289.93 341.59Q273.99 347.90 254.55 347.90L254.55 347.90Q242.27 347.90 231.45 345.43Q220.62 342.95 211.41 338.18L211.41 338.18L205.45 346.19Q203.06 349.60 200.08 351.99Q197.09 354.38 193.77 355.83Q190.44 357.28 186.86 357.87Q183.28 358.47 180.04 358.47L180.04 358.47L164.70 358.47L190.95 322.84Q179.70 311.07 173.73 294.62Q167.77 278.16 167.77 257.53L167.77 257.53Q167.77 236.90 173.99 220.19Q180.21 203.49 191.55 191.89Q202.89 180.30 218.92 173.99Q234.94 167.68 254.55 167.68L254.55 167.68Q279.10 167.68 298.03 177.57L298.03 177.57L307.41 164.78Q309.45 161.71 311.24 159.50Q313.03 157.28 315.16 156.00Q317.29 154.72 320.02 154.13Q322.75 153.53 326.50 153.53L326.50 153.53L347.30 153.53Z"
          fill="#999999"/>
</svg>